<svg xmlns="http://www.w3.org/2000/svg" width="641" height="641" viewBox="0 0 641 641" fill="none">
<path fill-rule="evenodd" clip-rule="evenodd" d="M213.716 36.844C151.095 39.7079 115.926 52.3853 84.8398 83.3001C61.2663 106.743 47.5856 135.395 41.5113 174.049C37.8212 197.525 35.8397 307.314 37.7234 383.88C39.4233 452.923 40.6796 466.729 47.3609 489.795C63.1982 544.466 103.445 581.771 160.177 594.36C187.827 600.496 199.719 600.99 320.256 601C453.371 601.01 463.129 600.39 496.079 589.825C522.924 581.218 543.641 567.755 561.74 547.156C583.031 522.923 595.196 493.062 599.97 453.311C602.677 430.771 602.677 206.346 599.97 183.806C595.224 144.28 583.12 114.435 562.191 90.6424C534.858 59.5714 501.326 43.8067 450.847 38.2964C431.976 36.2368 251.203 35.1289 213.716 36.844ZM210.822 49.936C152.18 52.7546 118.934 65.5999 90.2021 96.5395C71.7121 116.45 60.0363 141.583 54.871 172.589C47.911 214.367 47.8512 420.967 54.7864 464.465C60.1822 498.308 73.0545 524.298 95.0595 545.771C118.481 568.628 144.652 580.094 186.746 585.942C206.481 588.683 429.999 588.711 452.767 585.975C495.939 580.786 526.266 566.669 550.359 540.544C570.185 519.047 581.352 492.866 586.831 455.04C589.555 436.231 589.568 202.799 586.845 182.807C581.352 142.461 569.612 116.407 546.419 93.0859C522.091 68.6229 494.814 56.5323 452.306 51.365C435.775 49.3565 246.208 48.234 210.822 49.936ZM191.059 174.624C188.202 175.557 184.711 178.332 182.785 181.199L179.451 186.159V320.122V454.086L183.205 458.549C185.321 461.064 189.412 463.674 192.578 464.526C199.74 466.456 334.197 466.44 339.274 464.509C343.202 463.015 344.197 457.679 341.121 454.602C339.814 453.294 323.709 452.85 277.649 452.85H215.929V321.431C215.929 181.314 216.073 184.287 208.941 177.933C204.677 174.135 196.941 172.703 191.059 174.624ZM238.189 175.483C236.388 176.244 233.6 179.025 231.993 181.661C229.135 186.351 229.071 188.982 229.066 301.454L229.061 416.451L232.344 417.673C234.15 418.344 236.442 418.582 237.44 418.203C238.859 417.664 239.337 394.978 239.629 314.43L240.004 211.35L253.355 234.666C307.977 330.052 321.592 353.298 324.682 356.437C328.657 360.478 336.083 361.215 341.826 358.139C343.752 357.109 347.837 351.886 350.903 346.535C353.97 341.184 359.552 331.55 363.31 325.127C367.065 318.704 383.743 289.981 400.371 261.295C416.998 232.61 431.204 208.769 431.938 208.315C432.742 207.818 433.292 256.965 433.321 331.754C433.353 417.121 433.857 456.933 434.929 458.937C437.036 462.875 444.677 465.814 450.494 464.922C453.358 464.482 456.69 462.475 458.883 459.87L462.52 455.546V320.018V184.49L458.784 180.05C454.179 174.575 447.035 172.921 441.174 175.973C436.593 178.36 437.029 177.671 406.751 230.247C353.939 321.949 346.523 334.469 345.595 333.479C344.693 332.519 336.1 317.71 284.849 228.788C275.595 212.731 265.559 195.32 262.547 190.097C259.536 184.874 255.774 179.427 254.19 177.992C250.711 174.843 242.68 173.583 238.189 175.483Z" fill="white"/>
</svg>